<svg xmlns="http://www.w3.org/2000/svg" viewBox="0 0 64 64">
  <defs>
    <linearGradient id="bg" x1="0" y1="0" x2="64" y2="64" gradientUnits="userSpaceOnUse">
      <stop offset="0%" stop-color="#0d1f3c"/>
      <stop offset="100%" stop-color="#0a1628"/>
    </linearGradient>
    <linearGradient id="w1" x1="0" y1="0" x2="64" y2="0" gradientUnits="userSpaceOnUse">
      <stop offset="0%" stop-color="#22d3ee"/>
      <stop offset="100%" stop-color="#06b6d4"/>
    </linearGradient>
    <linearGradient id="w2" x1="0" y1="0" x2="64" y2="0" gradientUnits="userSpaceOnUse">
      <stop offset="0%" stop-color="#38bdf8"/>
      <stop offset="100%" stop-color="#22d3ee"/>
    </linearGradient>
    <linearGradient id="w3" x1="0" y1="0" x2="64" y2="0" gradientUnits="userSpaceOnUse">
      <stop offset="0%" stop-color="#7dd3fc"/>
      <stop offset="100%" stop-color="#38bdf8"/>
    </linearGradient>
  </defs>
  <rect width="64" height="64" rx="13" fill="url(#bg)"/>
  <path d="M7 20 C14 13 21 13 28 20 C35 27 42 27 57 20" stroke="url(#w1)" stroke-width="4.5" stroke-linecap="round" fill="none"/>
  <path d="M7 32 C14 25 21 25 28 32 C35 39 42 39 57 32" stroke="url(#w2)" stroke-width="4.5" stroke-linecap="round" fill="none"/>
  <path d="M7 44 C14 37 21 37 28 44 C35 51 42 51 57 44" stroke="url(#w3)" stroke-width="4.5" stroke-linecap="round" fill="none"/>
</svg>
